<svg xmlns="http://www.w3.org/2000/svg" viewBox="0 0 25 7"><g stroke-width=".24" aria-label="Teste" color="#000" font-family="sans-serif" font-size="9.64"><path d="M0 0h6.08v.78H3.53v6.09h-.98V.78H0z"/><path d="M9.92 4.08v.41H5.85q.06.88.55 1.34.5.45 1.37.45.52 0 1-.12.47-.12.94-.36v.8q-.47.2-.97.3-.5.1-1.02.1-1.29 0-2.04-.72-.76-.71-.76-1.94 0-1.26.72-2 .71-.75 1.93-.75 1.09 0 1.72.67.63.67.63 1.82zm-.88-.25q-.01-.7-.41-1.1-.4-.42-1.05-.42-.74 0-1.2.4-.43.4-.5 1.13zM14.81 1.87v.8q-.37-.19-.78-.28-.4-.09-.83-.09-.66 0-1 .2-.32.19-.32.57 0 .3.23.47.24.16.95.31l.3.07q.95.2 1.34.55.4.35.4.98 0 .71-.6 1.13-.59.42-1.63.42-.43 0-.9-.08-.47-.08-.99-.24V5.8q.5.25.97.37.48.12.94.12.63 0 .97-.2.33-.2.33-.58 0-.35-.24-.53-.24-.18-1.07-.35l-.3-.07q-.83-.17-1.2-.5-.36-.35-.36-.95 0-.73.54-1.12.54-.4 1.53-.4.5 0 .92.07.44.07.8.2zM17.4.25v1.47h1.82v.65h-1.83v2.8q0 .63.18.8.18.19.74.19h.9v.7h-.9q-1.03 0-1.42-.36-.39-.36-.39-1.33v-2.8h-.65v-.65h.65V.25zM25 4.08v.41h-4.07q.05.88.55 1.34.5.45 1.37.45.51 0 .99-.12t.95-.36v.8q-.47.2-.97.3-.5.1-1.02.1-1.29 0-2.05-.72Q20 5.57 20 4.34q0-1.26.72-2 .71-.75 1.93-.75 1.08 0 1.71.67.64.67.64 1.82zm-.89-.25q0-.7-.4-1.1-.4-.42-1.05-.42-.75 0-1.2.4-.44.4-.5 1.13z"/></g></svg>